<?xml version="1.0" encoding="UTF-8"?>
<svg width="16px" height="16px" viewBox="0 0 16 16" version="1.1" xmlns="http://www.w3.org/2000/svg" xmlns:xlink="http://www.w3.org/1999/xlink">
    <!-- Generator: Sketch 63.1 (92452) - https://sketch.com -->
    <title>编组</title>
    <desc>Created with Sketch.</desc>
    <g id="编组" stroke="none" stroke-width="1" fill="none" fill-rule="evenodd">
        <g>
            <rect id="矩形" x="0" y="0" width="16" height="16"></rect>
            <path d="M5,6 C5,4.34314575 6.34314575,3 8,3 C9.65685425,3 11,4.34314575 11,6 L11,12 C11,12.5522847 10.5522847,13 10,13 L10,15 C11.6568542,15 13,13.6568542 13,12 L13,6 C13,3.23857625 10.7614237,1 8,1 C5.23857625,1 3,3.23857625 3,6 L5,6 Z" id="路径" fill="#666" fill-rule="nonzero"></path>
            <path d="M3,6 L5,6 L5,12 L3,12 C1.34314575,12 0,10.6568542 0,9 C0,7.34314575 1.34314575,6 3,6 Z M2,9 C2,9.55228475 2.44771525,10 3,10 L3,8 C2.44771525,8 2,8.44771525 2,9 Z" id="矩形" fill="#666" fill-rule="nonzero"></path>
            <path d="M14,6 L16,6 L16,12 L14,12 C12.3431458,12 11,10.6568542 11,9 C11,7.34314575 12.3431458,6 14,6 Z M13,9 C13,9.55228475 13.4477153,10 14,10 L14,8 C13.4477153,8 13,8.44771525 13,9 Z" id="矩形" fill="#666" fill-rule="nonzero" transform="translate(13.500000, 9.000000) rotate(-180.000000) translate(-13.500000, -9.000000) "></path>
            <rect id="矩形" fill="#666" x="7" y="12" width="3" height="3"></rect>
        </g>
    </g>
</svg>